<?xml version="1.0" encoding="UTF-8" standalone="no"?>
<svg width="166px" height="175px" viewBox="0 0 166 175" version="1.1" xmlns="http://www.w3.org/2000/svg" xmlns:xlink="http://www.w3.org/1999/xlink">
    <!-- Generator: Sketch 3.6.1 (26313) - http://www.bohemiancoding.com/sketch -->
    <title>Artboard 1</title>
    <desc>Created with Sketch.</desc>
    <defs></defs>
    <g id="Page-1" stroke="none" stroke-width="1" fill="none" fill-rule="evenodd">
        <g id="Artboard-1" transform="translate(-5.000000, 1.000000)">
            <path d="M89.5,166.404293 C95.67816,166.404293 101.525036,164.985898 106.732755,162.456983 C119.91363,156.056232 129,142.54138 129,126.904293 C129,105.089045 111.315248,87.4042926 89.5,87.4042926 C67.6847524,87.4042926 50,105.089045 50,126.904293 C50,148.71954 67.6847524,166.404293 89.5,166.404293 Z" id="Oval-6" stroke="#000000" stroke-width="5" fill="#FDE2D7"></path>
            <path d="M131.800153,90.4516797 C148.605729,86.0757406 161,70.9324685 161,52.9237577 C161,31.4940567 143.449562,14.1218516 121.8,14.1218516 C118.145364,14.1218516 114.607538,14.616897 111.251229,15.542938 C105.019692,11.4103563 97.5242182,9 89.46,9 C81.2736268,9 73.6733592,11.4839325 67.3864612,15.7319195 C62.9872219,14.0407482 58.2030659,13.113002 53.2,13.113002 C31.5504378,13.113002 14,30.4852071 14,51.9149081 C14,71.524464 28.6957329,87.736505 47.7804988,90.3490001 C50.26,105.423282 50.26,123 50.26,123 L128.66,123 C128.66,123 128.659999,107.030139 131.800153,90.4516797 Z" id="maozhi" stroke="#020202" stroke-width="5" fill="#FFFFFF"></path>
            <path d="M88.0424908,139.93974 C85.4595123,137.144788 76.6085819,133.139216 71.228574,135.659407 C66.281129,137.976969 64.346405,140.709406 59.2205684,140.832733 C46.1453527,141.147323 37,121 37,121 C37,121 39.4639374,143.619958 47.6916382,154.394944 C52.6941132,160.946178 61.8378089,165.582111 70.9648964,165.399057 C76.3970404,165.29011 82.4867652,163.729052 86.4780052,159.918597 C87.0485885,159.373858 87.5701237,158.813959 88.0424908,158.240788 C88.5148579,158.813959 89.036393,159.373858 89.6069764,159.918597 C93.5982163,163.729052 99.6879411,165.29011 105.120085,165.399057 C114.247173,165.582111 123.390868,160.946178 128.393343,154.394944 C136.621044,143.619958 139.084982,121 139.084982,121 C139.084982,121 129.939629,141.147323 116.864413,140.832733 C111.738577,140.709406 109.803853,137.976969 104.856408,135.659407 C99.4763997,133.139216 90.6254693,137.144788 88.0424908,139.93974 Z" id="huzhi" fill="#000000"></path>
            <path d="M68.5,132 C71.5375661,132 74,129.537566 74,126.5 C74,123.462434 71.5375661,121 68.5,121 C65.4624339,121 63,123.462434 63,126.5 C63,129.537566 65.4624339,132 68.5,132 Z M109.5,132 C112.537566,132 115,129.537566 115,126.5 C115,123.462434 112.537566,121 109.5,121 C106.462434,121 104,123.462434 104,126.5 C104,129.537566 106.462434,132 109.5,132 Z" id="eyes" fill="#000000"></path>
        </g>
    </g>
</svg>